<svg width="288" height="288" viewBox="0 0 288 288" fill="none" xmlns="http://www.w3.org/2000/svg">
<path d="M200.527 177.576C191.554 200.314 169.024 215.013 142.646 215.013C119.909 215.013 94.6236 200.787 85.65 178.049L85.3366 177.271C82.4877 170.137 82.9832 161.409 82.9832 153.247L92.1262 72.5473L117.604 97.6532C125.1 94.451 133.17 92.8058 141.322 92.8176H143.976C152.386 92.8176 160.404 94.539 167.692 97.6532L195.697 70.0195L204.979 154.505C204.979 162.668 203.412 170.461 200.563 177.592" fill="#F4AA41"/>
<path d="M142.648 215.013C169.107 215.867 193.411 200.397 202.382 177.66L202.66 177.084C205.507 169.953 205.014 159.885 205.014 151.722L195.696 70.0195" fill="#E27022"/>
<path d="M144.001 203.327C153.008 203.327 160.31 194.555 160.31 183.734C160.31 172.914 153.008 164.142 144.001 164.142C134.993 164.142 127.691 172.914 127.691 183.734C127.691 194.555 134.993 203.327 144.001 203.327Z" fill="#EA5A47"/>
<path d="M130.192 144.882C133.805 134.682 129.851 123.976 121.361 120.968C112.87 117.961 103.059 123.791 99.4455 133.991C95.8323 144.19 99.7861 154.897 108.276 157.905C116.767 160.912 126.579 155.082 130.192 144.882Z" fill="white"/>
<path d="M177.943 157.905C186.434 154.898 190.387 144.191 186.774 133.991C183.161 123.792 173.349 117.961 164.858 120.969C156.368 123.977 152.415 134.684 156.028 144.883C159.641 155.083 169.453 160.913 177.943 157.905Z" fill="white"/>
<path d="M91.6602 217.306H114.499C114.499 217.306 117.969 183.512 114.499 177.342C111.973 172.857 108.058 164.018 97.1758 164.354C93.2375 164.475 81.9813 167.759 85.2699 177.627C89.8528 191.379 93.92 189.015 96.1217 193.244C99.0135 198.803 91.6602 217.306 91.6602 217.306ZM195.372 217.306H172.536C172.536 217.306 169.063 183.512 172.536 177.342C175.059 172.857 178.977 164.018 189.859 164.354C193.795 164.475 205.051 167.759 201.765 177.627C197.18 191.379 193.113 189.015 190.911 193.244C188.019 198.803 195.372 217.306 195.372 217.306Z" fill="#F4AA41"/>
<path d="M208.837 190.638L198.625 184.951M198.473 203.606L190.359 199.106M85.6585 170.492C85.6585 170.492 85.6332 170.467 85.6585 170.467C83.9649 164.931 83.0549 159.092 83.0549 153.025L92.1296 71.3271L119.505 98.0458C126.849 94.9493 134.74 93.359 142.71 93.3694H145.289C153.529 93.3694 161.365 95.0377 168.494 98.0458L195.87 71.3271L204.944 153.025C204.944 159.572 203.908 165.841 201.936 171.73M115.436 206.083C123.6 210.304 132.877 212.68 142.71 212.68H145.289C154.768 212.68 163.691 210.481 171.653 206.563M88.6413 185.355L79.1621 190.638M96.6038 199.662L89.526 203.606" stroke="black" stroke-width="2" stroke-miterlimit="10" stroke-linecap="round" stroke-linejoin="round"/>
<path d="M144 203.328C153.007 203.328 160.309 194.556 160.309 183.735C160.309 172.915 153.007 164.143 144 164.143C134.992 164.143 127.69 172.915 127.69 183.735C127.69 194.556 134.992 203.328 144 203.328Z" stroke="black" stroke-width="2" stroke-miterlimit="10" stroke-linecap="round" stroke-linejoin="round"/>
<path d="M130.192 144.881C133.805 134.681 129.851 123.975 121.361 120.967C112.87 117.96 103.059 123.79 99.4455 133.99C95.8323 144.189 99.7861 154.896 108.276 157.904C116.767 160.911 126.579 155.081 130.192 144.881Z" stroke="black" stroke-width="2" stroke-miterlimit="10" stroke-linecap="round" stroke-linejoin="round"/>
<path d="M177.942 157.905C186.433 154.898 190.386 144.191 186.773 133.991C183.16 123.792 173.348 117.961 164.857 120.969C156.367 123.977 152.414 134.684 156.027 144.883C159.64 155.083 169.452 160.913 177.942 157.905Z" stroke="black" stroke-width="2" stroke-miterlimit="10" stroke-linecap="round" stroke-linejoin="round"/>
<path d="M91.6621 217.306H114.501C114.501 217.306 117.971 183.512 114.501 177.342C111.975 172.857 108.06 164.018 97.1777 164.354C93.2394 164.475 81.9832 167.759 85.2719 177.627C89.8547 191.379 93.9219 189.015 96.1236 193.244C99.0154 198.803 91.6621 217.306 91.6621 217.306ZM195.374 217.306H172.538C172.538 217.306 169.065 183.512 172.538 177.342C175.061 172.857 178.979 164.018 189.861 164.354C193.797 164.475 205.053 167.759 201.767 177.627C197.182 191.379 193.114 189.015 190.913 193.244C188.021 198.803 195.374 217.306 195.374 217.306Z" stroke="black" stroke-width="2" stroke-miterlimit="10" stroke-linecap="round" stroke-linejoin="round"/>
</svg>
